<?xml version="1.0" standalone="no"?>
<!DOCTYPE svg PUBLIC "-//W3C//DTD SVG 20010904//EN"
 "http://www.w3.org/TR/2001/REC-SVG-20010904/DTD/svg10.dtd">
<svg version="1.0" xmlns="http://www.w3.org/2000/svg"
 width="2000.000000pt" height="2000.000000pt" viewBox="0 0 2000.000000 2000.000000"
 preserveAspectRatio="xMidYMid meet">

<g transform="translate(0.000000,2000.000000) scale(0.100000,-0.100000)"
fill="#FFFFFF" stroke="none">
<path d="M10899 18355 c-19 -7 -1549 -887 -3400 -1955 -1850 -1069 -3467
-2002 -3594 -2075 -126 -73 -538 -310 -915 -527 -756 -435 -777 -450 -819
-563 l-21 -56 2 -3802 3 -3802 21 -46 c64 -138 193 -201 339 -167 48 12 362
189 1613 911 854 493 1555 897 1557 897 3 0 5 -48 5 -107 0 -127 9 -165 53
-229 36 -52 -41 -5 897 -546 272 -157 518 -297 547 -312 92 -46 218 -77 341
-83 l112 -6 0 85 c0 96 1 97 85 98 49 1 194 32 255 55 25 10 351 194 724 409
719 414 771 449 817 543 49 100 18 217 -79 304 -28 25 -249 160 -518 315 -755
436 -745 430 -796 485 -63 66 -80 123 -76 258 l3 102 1305 753 1305 754 5
-782 c4 -588 8 -786 17 -802 20 -35 172 -117 218 -118 36 -1 230 109 1755 988
943 544 1727 1000 1743 1014 15 14 38 48 52 76 l25 50 0 2788 c0 1533 -2 2788
-5 2788 -4 0 -270 -152 -685 -392 -91 -52 -286 -165 -435 -251 -148 -85 -369
-212 -490 -282 -121 -70 -404 -233 -630 -363 -225 -129 -631 -363 -902 -518
-271 -156 -497 -284 -502 -284 -6 0 -44 21 -86 46 l-75 45 1 222 c0 314 7 329
226 452 172 98 318 182 702 405 l301 175 0 888 0 888 -22 -12 c-25 -14 -423
-243 -908 -524 -266 -154 -1011 -585 -2020 -1168 -124 -71 -351 -203 -505
-292 -154 -89 -440 -254 -635 -367 -195 -113 -643 -372 -995 -575 -352 -204
-1074 -621 -1605 -928 -531 -307 -1093 -632 -1249 -722 -155 -90 -289 -167
-296 -169 -7 -3 -47 15 -90 40 -42 25 -79 46 -81 46 -2 0 -4 -1157 -4 -2572 0
-1414 -1 -2572 -2 -2573 -2 -1 -152 -88 -334 -194 -330 -191 -372 -209 -402
-179 -9 9 -12 693 -12 3015 0 2933 0 3005 19 3041 10 20 30 46 43 58 12 12
129 82 258 156 129 74 453 261 720 415 470 271 945 546 1945 1123 264 152 802
463 1195 690 393 227 974 562 1290 745 316 182 1060 611 1652 953 592 342
1083 622 1090 622 8 0 23 -6 34 -14 17 -13 19 -31 24 -204 l5 -189 140 81 140
82 0 340 0 339 -33 67 c-37 76 -92 129 -151 146 -50 16 -167 14 -212 -3z
m3347 -3491 c5 -18 1 -34 -13 -51 -17 -23 -200 -133 -706 -424 -88 -50 -164
-88 -172 -85 -19 7 -19 46 0 73 8 11 149 99 312 194 164 95 354 205 423 246
69 40 131 73 137 73 7 0 16 -12 19 -26z m-986 -583 c0 -14 -8 -36 -18 -47 -9
-12 -199 -126 -422 -255 -223 -128 -459 -264 -525 -302 -103 -60 -506 -291
-1006 -579 -75 -43 -141 -78 -147 -78 -19 0 -24 38 -8 67 10 20 64 56 188 128
95 54 335 193 533 308 198 115 421 244 495 287 968 559 879 510 897 503 7 -3
13 -17 13 -32z m-1740 -154 c0 -1 -36 -155 -80 -342 -79 -338 -89 -365 -127
-365 -9 0 -12 8 -8 23 3 12 37 157 75 322 38 165 72 309 75 321 2 11 15 26 27
32 23 11 38 14 38 9z m710 -76 c0 -41 -4 -51 -25 -65 -38 -25 -45 -20 -45 33
0 40 4 53 22 65 38 27 48 20 48 -33z m-589 -53 c67 -56 67 -84 -3 -221 l-53
-102 -3 52 c-2 40 3 63 23 104 l27 51 -26 27 c-21 22 -26 37 -26 79 0 29 3 52
6 52 3 0 28 -19 55 -42z m449 -27 c0 -40 -4 -53 -22 -65 -38 -27 -48 -20 -48
33 0 40 4 53 22 65 38 27 48 20 48 -33z m-140 -80 c0 -40 -4 -53 -22 -65 -38
-27 -48 -20 -48 33 0 39 4 52 23 64 38 27 47 21 47 -32z m-3960 -1012 c-345
-1281 -455 -1691 -555 -2059 -29 -108 -72 -268 -215 -798 -15 -57 -32 -107
-36 -112 -21 -20 -427 -250 -432 -245 -3 2 242 908 543 2012 l548 2009 211
121 c116 67 212 120 214 118 2 -1 -123 -473 -278 -1046z m5108 930 c2 -17 -5
-36 -20 -52 -28 -32 -539 -327 -566 -327 -28 0 -35 26 -17 64 13 27 61 58 288
189 151 87 281 156 292 155 13 -2 21 -12 23 -29z m655 -8 c-1 -18 -10 -42 -20
-51 -30 -29 -544 -320 -564 -320 -29 0 -35 29 -13 68 16 28 66 61 284 187 286
166 316 177 313 116z m-2513 -15 c0 -25 -11 -68 -26 -102 l-26 -59 26 -22 c22
-18 26 -31 26 -73 0 -62 -11 -63 -67 -8 -33 32 -43 50 -43 74 0 34 87 234 102
234 4 0 8 -20 8 -44z m2678 -262 c2 -19 -4 -39 -15 -52 -15 -17 -1615 -947
-1991 -1157 -105 -58 -132 -63 -132 -23 0 40 28 66 148 137 486 287 1960 1131
1972 1129 9 -2 16 -16 18 -34z m-1508 -113 c0 -15 -7 -36 -14 -47 -8 -12 -129
-86 -268 -166 -139 -80 -414 -239 -612 -352 -197 -114 -366 -206 -375 -204
-25 5 -24 50 1 79 13 15 187 121 388 237 201 116 455 263 564 327 311 181 316
184 316 126z m654 16 c7 -11 6 -25 -6 -49 -14 -29 -90 -76 -579 -358 -647
-373 -666 -383 -685 -376 -26 10 -16 57 19 89 37 34 1217 718 1231 714 5 -2
14 -11 20 -20z m-4219 -101 c95 -10 1190 -106 1228 -108 l37 -2 0 -262 0 -262
-707 -877 -708 -877 -3 346 -2 347 366 437 c202 240 387 460 411 489 23 28 43
53 43 56 0 5 -235 15 -550 22 -124 4 -235 8 -247 11 l-23 4 0 346 0 345 53 -5
c28 -3 75 -8 102 -10z m2773 -747 c2 -17 -5 -36 -20 -53 -29 -32 -437 -268
-458 -264 -25 5 -24 53 2 81 29 32 438 268 458 265 8 -2 16 -15 18 -29z m2630
8 c9 -47 -8 -66 -116 -130 -194 -116 -461 -267 -471 -267 -18 0 -32 37 -22 62
13 34 31 47 211 151 91 52 208 120 260 150 97 58 132 66 138 34z m-1398 -59
c0 -18 -7 -41 -14 -51 -12 -15 -704 -420 -949 -556 -82 -45 -107 -47 -107 -9
0 55 -18 42 655 432 204 118 380 215 393 215 18 1 22 -4 22 -31z m-1232 -329
c2 -17 -5 -36 -20 -52 -29 -33 -437 -269 -458 -265 -25 5 -24 53 2 81 29 32
438 268 458 265 8 -2 16 -15 18 -29z m2630 -4 c1 -17 -5 -39 -15 -52 -10 -11
-121 -81 -248 -154 -286 -164 -834 -481 -966 -557 -14 -9 -33 -13 -42 -9 -23
8 -22 59 1 85 9 12 190 121 402 242 212 122 426 246 475 275 50 29 117 68 150
86 33 19 92 53 130 76 82 50 109 52 113 8z m-691 -20 c2 -16 -3 -37 -10 -46
-14 -17 -96 -67 -387 -234 -113 -65 -230 -133 -260 -150 -30 -18 -113 -66
-185 -107 -71 -41 -194 -112 -273 -157 -116 -67 -146 -80 -158 -71 -18 16 -18
50 0 76 8 11 84 60 168 109 84 49 232 134 328 190 96 56 240 139 320 185 80
46 206 119 280 162 74 43 144 77 155 76 14 -2 21 -12 22 -33z m-707 -28 c0
-19 -8 -42 -19 -53 -15 -16 -674 -401 -964 -564 -62 -34 -87 -34 -87 2 0 36
24 63 93 105 234 143 936 542 955 542 18 1 22 -4 22 -32z m-6520 -519 l0 -343
-143 -171 c-271 -324 -401 -479 -487 -578 -163 -190 -202 -237 -198 -241 4 -4
473 -21 716 -27 l112 -2 0 -348 c0 -304 -2 -348 -15 -348 -26 0 -1318 110
-1362 116 l-43 5 0 262 0 263 214 266 c384 478 788 980 891 1108 56 69 147
182 203 253 57 70 105 127 107 127 3 0 5 -154 5 -342z m5288 189 c2 -19 -5
-35 -25 -55 -42 -41 -439 -266 -458 -259 -22 9 -18 52 8 81 28 32 437 267 457
264 8 -2 16 -16 18 -31z m2630 6 c5 -32 -14 -60 -56 -87 -20 -12 -213 -125
-428 -250 -255 -148 -397 -224 -408 -220 -23 9 -20 49 7 78 28 32 847 507 867
503 8 -1 16 -12 18 -24z m-2630 -386 c2 -19 -5 -35 -25 -55 -42 -41 -439 -266
-458 -259 -22 9 -18 52 8 81 28 32 437 267 457 264 8 -2 16 -16 18 -31z m2630
2 c2 -17 -5 -36 -20 -52 -13 -14 -211 -134 -441 -267 -340 -196 -421 -239
-433 -230 -20 18 -17 45 9 74 28 32 847 507 867 504 8 -2 16 -15 18 -29z
m-1059 -217 c7 -12 5 -27 -5 -48 -11 -24 -63 -58 -242 -161 -294 -169 -271
-158 -289 -140 -12 12 -12 19 -1 47 12 29 46 52 258 176 135 78 250 143 257
143 7 1 17 -7 22 -17z m1058 -528 c3 -9 -1 -30 -9 -47 -13 -27 -83 -71 -429
-272 -233 -134 -425 -240 -439 -240 -34 0 -38 35 -8 69 26 30 833 504 861 505
10 1 20 -6 24 -15z m-983 -190 c3 -8 0 -30 -8 -48 -12 -29 -121 -94 -1052
-632 -571 -329 -1047 -599 -1058 -599 -27 0 -34 46 -12 76 18 27 2073 1217
2102 1218 12 1 25 -6 28 -15z m-6 -395 c2 -17 -5 -36 -20 -52 -13 -15 -488
-294 -1056 -622 -1069 -616 -1062 -613 -1062 -554 0 10 10 29 23 43 27 32
2076 1217 2097 1213 8 -1 16 -14 18 -28z m-6259 -1575 c51 -65 9 -217 -82
-301 -48 -45 -77 -57 -122 -51 -69 8 -91 119 -44 215 21 41 37 55 119 105 52
31 98 57 102 57 4 1 16 -11 27 -25z"/>
<path d="M11638 17303 c-62 -68 -65 -203 -5 -203 66 0 124 147 81 208 -20 29
-45 28 -76 -5z"/>
<path d="M11401 17174 c-56 -39 -81 -172 -40 -210 18 -17 23 -17 47 -4 37 21
62 70 69 133 5 47 2 58 -16 76 -25 25 -30 26 -60 5z"/>
<path d="M11138 17013 c-33 -35 -48 -73 -48 -124 0 -52 15 -79 44 -79 65 0
122 148 80 208 -20 29 -45 28 -76 -5z"/>
<path d="M16910 16461 c0 -77 61 -815 68 -825 42 -56 377 -493 382 -499 7 -8
386 46 397 57 3 3 21 176 38 384 l32 377 -148 155 c-81 85 -185 192 -231 237
l-83 82 -221 30 c-121 17 -223 31 -227 31 -4 0 -7 -13 -7 -29z m610 -691 c77
-272 140 -498 140 -502 0 -4 -24 7 -54 25 l-54 32 -27 100 c-16 55 -31 106
-35 113 -3 7 -60 44 -126 81 -101 59 -120 66 -126 52 -4 -9 -19 -42 -33 -74
l-25 -59 -52 31 c-29 17 -52 36 -50 43 1 7 67 165 145 351 104 248 144 333
149 320 5 -10 71 -241 148 -513z"/>
<path d="M17327 15883 c-21 -48 -37 -91 -37 -95 0 -3 21 -18 48 -33 26 -15 61
-36 79 -47 l32 -19 -20 68 c-11 37 -26 95 -35 128 -25 95 -27 95 -67 -2z"/>
<path d="M14244 16298 c-58 -28 -94 -181 -50 -214 26 -19 30 -18 65 12 42 35
67 120 51 168 -9 27 -31 50 -43 45 -1 0 -12 -5 -23 -11z"/>
<path d="M13967 16130 c-46 -55 -60 -142 -29 -180 38 -47 99 3 120 96 21 95
-37 149 -91 84z"/>
<path d="M13744 16010 c-66 -26 -98 -191 -43 -221 46 -24 109 61 109 149 0 35
-5 54 -18 65 -21 19 -19 19 -48 7z"/>
<path d="M17102 13884 c3 -5 63 -184 132 -397 70 -213 131 -385 135 -382 7 3
174 314 252 467 7 13 -7 25 -73 62 -44 26 -82 45 -83 44 -2 -2 -19 -34 -38
-73 -64 -127 -58 -129 -112 41 -43 136 -50 152 -79 168 -103 60 -139 79 -134
70z"/>
<path d="M16915 12068 c-16 -5 -70 -35 -119 -66 -73 -47 -95 -67 -125 -116
l-36 -59 -3 -168 -4 -168 -181 -102 c-214 -120 -239 -137 -235 -154 2 -8 71
-87 153 -176 83 -90 176 -191 208 -226 l57 -63 0 -228 c0 -267 6 -295 79 -372
38 -41 157 -113 656 -402 336 -193 628 -358 650 -366 26 -9 65 -12 111 -10 61
4 83 11 157 52 113 61 137 83 178 158 l34 63 3 724 c2 492 -1 742 -8 777 -6
30 -27 74 -48 106 -42 59 -52 66 -432 285 -124 71 -301 174 -395 228 -415 240
-473 272 -505 283 -39 14 -153 14 -195 0z m273 -782 c15 -8 41 -29 58 -48 31
-32 108 -146 117 -171 3 -9 9 -9 28 1 104 54 185 24 236 -87 13 -27 17 -67 18
-167 l0 -130 62 -75 c167 -201 164 -349 -7 -349 l-55 0 3 -117 c3 -121 -5
-155 -39 -176 -44 -28 -131 43 -203 167 -30 51 -43 65 -55 60 -95 -41 -140
-40 -189 1 -16 14 -40 48 -53 77 -21 47 -24 68 -24 179 l0 127 -57 67 c-72 86
-117 171 -125 233 -5 44 -3 52 24 82 28 31 36 34 98 38 l67 4 -7 87 c-7 94 4
162 31 192 20 23 36 24 72 5z"/>
<path d="M17150 11224 c-17 -20 -24 -99 -16 -176 l7 -63 59 -21 59 -21 36 44
c22 27 34 50 31 59 -15 39 -112 167 -137 179 -23 13 -29 13 -39 -1z"/>
<path d="M17455 11024 c-21 -7 -41 -16 -45 -21 -5 -4 11 -49 33 -100 36 -77
50 -98 94 -132 29 -23 55 -36 58 -31 11 18 8 176 -4 212 -22 67 -73 94 -136
72z"/>
<path d="M17342 10947 c-12 -13 -22 -26 -22 -29 0 -4 20 -18 45 -31 51 -29 55
-22 22 41 l-23 43 -22 -24z"/>
<path d="M16983 10930 c-29 -12 -39 -52 -24 -100 12 -40 80 -139 124 -178 l25
-23 21 63 20 63 -22 90 -23 90 -50 2 c-27 1 -59 -2 -71 -7z"/>
<path d="M17160 10907 c0 -27 12 -77 19 -77 13 0 43 62 35 70 -5 4 -19 11 -31
15 -17 4 -23 2 -23 -8z"/>
<path d="M17262 10843 c-11 -16 -29 -47 -41 -70 l-21 -42 41 -124 41 -125 78
-46 c43 -25 82 -46 87 -46 12 0 83 120 83 140 0 27 -71 230 -87 245 -14 15
-147 95 -157 95 -2 0 -13 -12 -24 -27z m132 -127 c51 -54 70 -141 40 -184 -45
-64 -146 30 -148 139 -2 84 51 106 108 45z"/>
<path d="M17525 10699 c4 -13 13 -40 20 -59 l13 -35 11 28 c16 40 15 43 -20
68 l-31 22 7 -24z"/>
<path d="M17161 10623 c-10 -35 -9 -39 22 -64 17 -15 33 -26 34 -25 4 3 -38
126 -42 126 -2 0 -9 -17 -14 -37z"/>
<path d="M17605 10571 c-19 -62 -19 -63 4 -157 l23 -94 52 0 c30 0 61 6 74 16
49 34 14 136 -85 244 l-49 53 -19 -62z"/>
<path d="M17136 10514 c-10 -25 -7 -166 4 -203 12 -43 45 -78 80 -86 29 -6
110 20 110 37 0 5 -16 47 -37 93 -31 73 -44 91 -94 130 -46 36 -58 42 -63 29z"/>
<path d="M17531 10402 l-22 -42 26 -10 c42 -16 47 -13 39 23 -15 73 -19 75
-43 29z"/>
<path d="M17330 10374 c5 -13 17 -39 26 -56 l17 -32 23 29 c13 16 22 30 21 30
-1 1 -23 13 -49 27 l-47 26 9 -24z"/>
<path d="M17436 10271 l-38 -39 38 -64 c48 -79 111 -148 135 -148 28 0 42 68
34 160 -4 42 -10 81 -13 86 -6 8 -98 44 -112 44 -3 0 -23 -18 -44 -39z"/>
<path d="M15150 10223 c-121 -33 -217 -110 -268 -213 -31 -63 -43 -192 -22
-245 l12 -30 17 55 c29 93 34 98 56 50 10 -23 41 -62 69 -88 40 -37 55 -60 69
-104 10 -32 20 -58 23 -58 2 0 18 15 34 34 36 40 70 51 116 36 66 -22 84 -120
34 -189 -30 -43 -94 -75 -136 -68 -32 5 -32 5 -23 -23 14 -40 99 -160 129
-182 14 -10 59 -23 100 -29 172 -27 349 58 468 224 l37 52 6 -120 c4 -106 8
-127 34 -178 55 -112 170 -193 298 -212 l48 -7 -3 368 c-3 359 -4 371 -26 426
-28 68 -97 148 -160 186 -26 14 -76 34 -112 43 l-65 16 53 17 c57 19 61 32 20
56 -34 19 -76 1 -91 -39 l-10 -29 -43 58 c-63 86 -168 152 -286 180 -128 31
-292 36 -378 13z"/>
<path d="M15615 9019 c-42 -9 -52 -15 -65 -42 -32 -68 -164 -101 -294 -74 -67
14 -124 9 -119 -9 2 -5 12 -36 24 -69 18 -51 20 -75 16 -165 -3 -69 -12 -124
-25 -160 -10 -30 -86 -179 -167 -330 l-147 -275 -14 -245 c-7 -135 -18 -308
-24 -385 -8 -120 -8 -142 5 -151 13 -10 13 -46 4 -280 -14 -366 -15 -1444 -1
-1509 42 -195 78 -496 144 -1204 32 -338 34 -354 56 -369 35 -23 139 -27 205
-8 68 20 60 -13 87 356 11 151 22 307 25 345 29 385 34 661 15 875 l-11 135
70 505 c39 278 71 511 71 519 0 8 2 12 4 10 4 -4 36 -447 56 -769 15 -245 33
-432 95 -996 30 -271 55 -497 55 -502 0 -20 102 -34 158 -22 89 20 85 10 131
330 112 786 120 954 56 1207 l-25 96 15 186 c8 102 32 346 52 541 31 304 36
390 36 600 1 241 0 246 -27 330 -35 107 -98 240 -163 348 l-51 84 24 61 c62
158 112 370 121 517 12 204 -62 416 -175 494 -34 25 -54 31 -105 32 -34 2 -84
-2 -112 -7z"/>
<path d="M11844 7677 c-54 -21 -6148 -3549 -6174 -3574 -24 -22 -25 -30 -28
-147 -3 -117 -2 -124 20 -149 18 -20 1880 -1104 2048 -1192 53 -28 162 -26
220 5 25 12 1413 812 3085 1777 1770 1022 3052 1767 3069 1785 l28 31 -4 124
c-4 115 -6 125 -28 147 -14 14 -484 289 -1045 613 l-1020 588 -70 2 c-38 1
-84 -3 -101 -10z"/>
<path d="M15376 4285 c9 -67 42 -122 109 -181 35 -30 91 -95 124 -143 97 -142
144 -172 246 -157 55 9 83 31 91 74 l7 33 -31 -30 c-26 -27 -38 -31 -84 -31
-79 0 -113 22 -196 130 -40 52 -111 132 -157 178 -55 55 -89 98 -99 125 l-16
42 6 -40z"/>
<path d="M15289 3328 c-31 -24 -88 -37 -155 -38 -69 0 -141 -23 -254 -80 -58
-30 -120 -53 -160 -60 -111 -20 -221 7 -294 71 -38 34 -46 37 -46 21 0 -57
125 -124 245 -130 103 -5 179 13 311 77 85 41 114 50 180 56 109 9 180 24 194
40 6 8 10 25 8 38 l-3 24 -26 -19z"/>
</g>
</svg>
