<?xml version="1.0" standalone="no"?>
<!DOCTYPE svg PUBLIC "-//W3C//DTD SVG 20010904//EN"
 "http://www.w3.org/TR/2001/REC-SVG-20010904/DTD/svg10.dtd">
<svg version="1.0" xmlns="http://www.w3.org/2000/svg"
 width="2000.000000pt" height="2000.000000pt" viewBox="0 0 2000.000000 2000.000000"
 preserveAspectRatio="xMidYMid meet">

<g transform="translate(0.000000,2000.000000) scale(0.100000,-0.100000)"
fill="#FFFFFF" stroke="none">
<path d="M14925 19270 c-553 -40 -1065 -272 -1456 -660 -194 -193 -332 -384
-449 -625 -140 -286 -207 -537 -232 -862 -13 -169 -2 -386 27 -543 9 -47 19
-102 22 -122 l6 -38 -1099 1 c-605 0 -1119 4 -1143 7 l-44 7 -18 65 c-10 36
-38 104 -62 152 l-45 88 69 92 70 92 -98 98 c-59 59 -101 94 -107 89 -6 -4
-47 -35 -91 -69 l-80 -62 -95 48 c-52 26 -121 54 -152 61 -65 16 -57 1 -81
161 l-12 85 -136 3 -137 3 -11 -83 c-25 -173 -14 -152 -94 -172 -39 -10 -107
-37 -152 -60 l-80 -42 -94 69 -94 69 -93 -93 c-52 -52 -94 -97 -94 -102 0 -4
26 -43 58 -85 32 -42 62 -82 65 -89 4 -6 -8 -42 -28 -78 -19 -36 -46 -104 -61
-150 -19 -62 -31 -85 -47 -91 -12 -5 -996 -11 -2187 -14 l-2165 -5 -61 -32
c-75 -39 -136 -107 -164 -179 -20 -54 -20 -69 -20 -1896 l0 -1840 -22 6 c-13
4 -44 12 -71 18 -35 8 -49 17 -52 32 -6 26 -35 233 -35 247 0 6 -60 8 -162 7
l-163 -3 -16 -115 c-9 -63 -18 -123 -20 -134 -3 -13 -26 -25 -88 -42 -81 -24
-199 -75 -252 -110 -26 -17 -27 -17 -105 43 -44 32 -94 70 -112 82 l-34 24
-109 -109 c-60 -60 -109 -112 -109 -117 0 -4 36 -55 79 -113 l79 -105 -48 -92
c-27 -51 -61 -132 -76 -182 -15 -49 -28 -91 -28 -92 -1 0 -53 -8 -116 -17 -63
-9 -125 -19 -138 -21 -22 -5 -22 -8 -22 -164 l0 -159 88 -12 c48 -6 109 -15
137 -19 l49 -6 21 -75 c23 -82 66 -184 102 -242 13 -21 23 -42 23 -48 0 -6
-36 -59 -80 -117 l-81 -107 115 -114 114 -115 108 83 108 83 86 -46 c88 -46
223 -97 259 -97 15 0 22 -8 26 -32 6 -40 35 -236 35 -243 0 -3 72 -5 160 -5
157 0 160 0 165 23 2 12 11 71 20 132 9 60 19 112 23 115 4 4 32 12 62 20 30
7 61 15 68 17 9 4 12 -183 12 -916 l0 -921 -1592 -2 c-1904 -2 -1765 -1 -1780
-16 -9 -9 -8 -13 3 -17 8 -3 768 -6 1689 -8 l1675 -2 3 -111 3 -111 -154 -314
c-85 -173 -320 -647 -522 -1054 -202 -407 -474 -957 -605 -1221 l-238 -482
-108 -4 c-89 -3 -118 -9 -159 -28 -70 -34 -144 -113 -179 -191 -15 -35 -32
-71 -36 -79 -11 -24 -279 -200 -620 -407 -833 -506 -1065 -651 -1068 -666 -2
-10 3 -17 12 -17 8 0 223 127 478 283 255 156 566 346 693 423 261 159 524
332 536 354 4 8 21 45 37 81 37 82 85 136 154 174 47 26 65 30 157 33 127 5
223 -9 366 -55 200 -64 522 -223 644 -317 69 -54 216 -205 296 -306 154 -193
354 -528 421 -706 14 -37 34 -111 44 -163 11 -53 34 -145 52 -206 41 -139 45
-264 12 -335 -27 -57 -75 -104 -139 -134 -56 -27 -183 -56 -245 -56 -55 0 -92
-17 -175 -80 -38 -29 -212 -145 -385 -258 -173 -113 -502 -327 -730 -476 -228
-148 -552 -359 -720 -468 -204 -134 -306 -206 -308 -219 -2 -10 1 -19 7 -19 6
0 109 64 229 142 226 148 234 152 772 395 919 416 964 435 1255 546 527 202
757 318 877 445 61 64 83 100 93 153 6 30 78 107 488 516 416 415 494 488 567
534 189 116 371 247 489 351 l66 58 3340 0 c3273 0 3341 0 3371 -19 18 -11
252 -201 520 -423 269 -222 574 -473 677 -558 l188 -155 53 -105 c107 -214
218 -369 311 -435 236 -169 1014 -540 2085 -995 178 -76 313 -126 415 -155
124 -35 182 -58 341 -138 115 -58 195 -92 203 -88 22 14 -15 39 -193 128 -398
199 -773 398 -1932 1024 -126 68 -246 124 -325 153 -68 24 -146 53 -174 63
-77 28 -145 102 -174 188 -49 144 -39 364 26 569 139 440 537 927 1023 1254
248 166 435 234 675 248 139 7 227 -5 262 -38 12 -11 39 -61 59 -109 20 -48
47 -97 59 -109 25 -24 134 -58 1090 -346 878 -265 924 -279 935 -268 5 5 6 14
2 20 -4 5 -191 65 -417 133 -723 217 -1358 410 -1361 414 -4 4 -866 1743
-1465 2957 l-280 565 3 110 3 110 1178 3 c1115 2 1178 3 1175 20 -3 16 -70 17
-1181 20 l-1177 2 0 1868 c0 1028 3 1871 6 1874 4 5 73 -9 81 -16 2 -1 12 -65
23 -142 11 -76 22 -145 25 -151 3 -10 47 -13 174 -13 l169 0 6 33 c3 17 13 86
22 153 l17 120 62 16 c93 25 214 73 279 113 32 19 63 32 70 28 6 -4 62 -45
124 -92 l113 -84 120 119 c65 65 119 122 119 127 0 4 -38 59 -85 121 -47 62
-85 119 -85 125 0 6 12 30 26 53 40 62 83 163 110 257 13 47 25 86 27 87 2 2
277 44 290 44 4 0 7 79 7 175 0 96 -3 175 -7 175 -5 0 -66 9 -138 20 -71 11
-135 20 -141 20 -6 0 -21 37 -33 83 -12 45 -49 137 -82 204 l-60 122 90 120
91 120 -122 121 c-68 66 -127 118 -133 116 -5 -2 -61 -43 -124 -90 l-114 -85
-28 20 c-51 36 -212 107 -284 125 -38 10 -74 21 -78 24 -8 7 -36 174 -37 216
0 15 17 33 58 59 345 228 650 592 822 984 139 318 197 626 187 998 -9 363 -87
670 -250 988 -64 125 -265 430 -363 550 -412 507 -987 808 -1634 854 -157 12
-174 12 -325 1z m485 -55 c743 -108 1385 -576 1716 -1251 153 -314 226 -631
226 -994 0 -265 -30 -462 -107 -700 -269 -831 -995 -1432 -1875 -1551 -139
-19 -450 -17 -590 5 -244 36 -458 101 -667 201 -132 63 -132 63 -175 50 -24
-7 -191 -61 -372 -119 -180 -59 -330 -105 -333 -102 -3 3 4 20 15 38 55 93
272 509 272 524 0 9 -38 56 -84 104 -261 275 -460 640 -549 1011 -49 201 -61
309 -62 539 0 222 11 324 56 520 72 312 241 653 452 915 130 162 340 349 532
475 101 66 352 189 470 230 168 59 388 104 595 124 89 8 367 -3 480 -19z
m-5587 -1937 c4 -12 11 -63 18 -114 l12 -92 66 -16 c69 -17 192 -71 242 -107
l29 -20 82 61 c45 34 88 65 96 68 15 5 142 -115 142 -136 0 -7 -29 -51 -65
-99 l-65 -85 19 -27 c48 -68 111 -223 111 -273 0 -16 -10 -18 -106 -18 -101 0
-106 1 -112 22 -3 13 -23 58 -45 101 -71 142 -210 255 -372 303 -73 21 -217
24 -295 5 -191 -46 -363 -199 -426 -378 l-19 -53 -107 0 c-98 0 -108 2 -108
18 0 36 51 167 91 234 23 39 37 73 33 81 -4 6 -34 47 -67 91 l-59 78 72 73 73
73 91 -68 90 -68 27 19 c46 32 159 82 238 104 l76 21 16 109 c9 61 17 111 18
113 0 1 45 2 100 2 93 0 99 -1 104 -22z m2 -463 c166 -35 316 -149 388 -294
20 -40 37 -80 37 -87 0 -12 -90 -14 -535 -14 -340 0 -535 4 -535 10 0 23 51
120 92 175 78 105 198 181 330 210 83 18 138 18 223 0z m3402 -1212 c54 -82
128 -186 165 -232 38 -47 68 -88 68 -92 0 -4 -67 -132 -149 -285 -82 -152
-147 -283 -144 -291 7 -18 18 -17 116 16 48 17 87 27 87 24 0 -4 -23 -48 -50
-100 -48 -88 -54 -113 -28 -113 6 0 187 57 401 126 l390 125 120 -56 c281
-133 662 -225 934 -225 l53 0 0 -2710 0 -2710 -5095 0 -5095 0 0 3335 0 3335
4065 0 4065 0 97 -147z m3183 -916 c7 -54 18 -100 24 -101 152 -39 312 -103
386 -156 16 -11 33 -20 39 -20 6 0 63 39 127 87 l115 86 95 -94 c52 -51 94
-98 94 -104 0 -6 -39 -62 -87 -124 -79 -105 -85 -115 -73 -135 57 -90 94 -166
124 -257 20 -59 36 -116 36 -127 0 -11 6 -24 13 -29 6 -6 74 -18 150 -28 l137
-17 0 -142 0 -143 -140 -18 c-76 -10 -143 -21 -147 -24 -4 -3 -18 -44 -29 -91
-21 -84 -76 -210 -130 -301 l-28 -47 88 -117 88 -118 -98 -98 -99 -98 -119 89
-119 90 -31 -20 c-89 -59 -308 -150 -362 -150 -40 0 -47 -17 -68 -162 l-21
-143 -140 0 -140 0 -20 140 c-11 77 -23 145 -27 151 -4 6 -27 14 -50 18 -68
11 -68 12 -68 171 0 78 3 144 6 147 3 3 29 -2 58 -13 300 -105 669 8 861 264
111 147 158 288 159 472 0 235 -77 413 -247 571 -92 85 -161 128 -271 165
-164 57 -343 60 -491 9 -32 -11 -62 -20 -67 -20 -14 0 -10 298 4 306 7 4 35
13 63 19 47 11 51 13 60 53 10 41 11 41 165 119 178 90 159 96 180 -60z m-380
-51 c0 -11 -66 -36 -95 -36 -15 0 10 23 39 36 40 17 56 17 56 0z m405 -396
c366 -104 601 -473 532 -837 -31 -162 -94 -280 -214 -400 -70 -70 -98 -90
-185 -132 -121 -58 -215 -81 -330 -81 -86 0 -225 28 -278 55 l-30 16 2 671 3
672 70 24 c39 13 95 27 125 32 79 13 224 3 305 -20z m-12384 -1550 c4 -25 12
-84 19 -131 l12 -86 56 -13 c32 -7 72 -18 90 -26 l32 -13 0 -142 c0 -131 -1
-141 -17 -133 -10 4 -56 21 -103 38 -80 28 -94 30 -225 30 -124 0 -149 -3
-218 -26 -265 -89 -449 -311 -488 -592 -26 -187 33 -390 159 -542 141 -172
350 -262 581 -252 99 5 193 28 294 72 16 8 17 -2 17 -132 0 -102 -3 -143 -12
-149 -7 -4 -49 -17 -93 -29 -49 -13 -81 -26 -82 -35 -1 -8 -9 -67 -19 -131
l-17 -118 -126 0 -127 0 -18 134 -18 134 -37 7 c-93 16 -235 74 -322 132 -43
29 -32 33 -163 -65 l-99 -74 -88 89 -89 88 80 107 c44 59 80 110 80 113 0 3
-20 40 -44 81 -39 66 -94 213 -110 295 -6 29 11 25 -226 58 l-45 6 -3 126 -3
126 75 12 c41 6 100 14 130 17 31 4 60 12 64 18 3 6 15 43 24 81 19 74 70 188
118 267 l29 46 -80 106 c-43 58 -79 109 -79 113 0 5 38 46 84 92 58 58 88 81
97 75 8 -4 58 -41 111 -81 l98 -73 77 44 c87 50 179 87 266 106 45 10 58 18
62 34 4 21 35 232 35 242 0 2 57 3 127 2 l128 -3 6 -45z m22 -529 c42 -11 101
-32 131 -46 l56 -26 0 -580 0 -579 -51 -25 c-169 -86 -420 -86 -590 1 -188 95
-321 267 -364 474 -54 259 62 536 290 689 66 44 184 92 255 104 70 12 202 6
273 -12z m3715 -3775 c57 -60 116 -147 237 -346 137 -227 164 -261 298 -372
147 -121 158 -131 137 -124 -8 2 -53 17 -100 31 -47 15 -225 88 -397 161 -171
73 -332 139 -358 146 -43 12 -49 11 -98 -15 -90 -48 -281 -190 -497 -371 l-95
-80 -160 -44 c-173 -47 -245 -74 -268 -100 -37 -42 -92 -271 -70 -293 15 -15
24 7 51 121 34 149 38 154 130 184 44 15 137 42 206 61 117 31 132 37 189 85
288 239 509 403 562 416 31 8 57 -2 345 -127 458 -198 510 -214 733 -225 139
-6 147 -8 132 -24 -8 -9 -15 -23 -15 -32 0 -25 41 -69 76 -84 69 -29 245 -7
252 30 3 16 -1 18 -30 12 -18 -4 -69 -9 -114 -12 -80 -6 -81 -6 -115 25 -28
26 -32 32 -19 41 8 5 26 10 38 10 15 0 26 7 29 20 4 16 14 20 47 20 23 0 57 4
76 10 78 22 144 -52 121 -137 -16 -60 -75 -119 -213 -215 -169 -118 -158 -115
-253 -83 -136 46 -303 33 -473 -37 l-74 -31 -86 33 c-48 18 -140 57 -205 88
-69 33 -121 52 -126 46 -5 -5 -50 -135 -101 -289 -62 -188 -121 -342 -178
-468 -65 -142 -82 -191 -74 -199 8 -8 15 -9 22 -2 5 5 47 94 94 198 47 103 86
189 88 191 2 1 39 30 83 65 218 172 395 270 639 356 134 46 273 50 396 9 38
-13 57 -26 79 -58 30 -44 61 -124 61 -158 0 -56 -52 -107 -160 -158 l-65 -31
-16 63 c-8 34 -28 88 -42 121 -15 32 -27 62 -27 66 0 4 35 20 78 36 88 31 115
49 89 60 -21 8 -207 -54 -213 -71 -3 -7 9 -43 25 -80 35 -76 61 -158 61 -190
0 -17 -21 -29 -117 -69 -162 -67 -232 -107 -337 -195 -187 -155 -306 -292
-426 -494 -149 -251 -415 -523 -680 -696 -54 -35 -304 -156 -687 -333 -331
-153 -604 -278 -607 -278 -2 0 -10 26 -16 58 -43 209 -160 441 -320 637 -84
102 -252 259 -361 337 -181 130 -466 257 -612 274 -42 5 -57 11 -53 20 3 7 45
73 94 146 273 407 496 767 575 925 56 112 91 195 221 523 168 427 179 446 266
475 91 30 261 38 418 19 l44 -5 -94 -97 c-164 -170 -247 -271 -254 -309 -7
-36 2 -180 12 -208 4 -8 12 -15 20 -15 11 0 12 22 7 113 l-6 113 54 64 c78 95
331 351 429 434 115 98 217 175 293 220 55 33 67 37 112 33 28 -3 88 -17 135
-32 119 -38 350 -126 350 -134 -1 -3 -228 -168 -506 -366 l-504 -360 -35 -110
c-50 -163 -51 -165 -28 -165 15 0 26 22 58 125 l38 126 531 380 c528 377 532
380 746 488 247 124 387 175 442 163 9 -2 39 -27 66 -56z m-349 19 c-3 -2 -59
-31 -125 -63 -65 -33 -157 -80 -204 -106 l-85 -47 -130 51 c-170 68 -293 108
-376 122 -64 11 -68 11 -125 -17 -32 -16 -105 -64 -161 -107 -57 -43 -110 -78
-118 -78 -8 0 -15 -6 -15 -14 0 -7 -17 -26 -37 -42 -30 -23 -35 -24 -29 -8 5
10 11 29 13 42 l5 22 -270 0 -271 0 -28 -76 c-21 -58 -35 -79 -55 -90 -35 -18
-35 -12 2 81 17 42 30 78 30 80 0 3 -113 4 -251 3 l-251 -3 -74 -175 c-41 -96
-77 -185 -80 -197 l-6 -23 231 0 c229 0 232 0 221 -20 -10 -19 -21 -20 -244
-20 l-233 0 -78 -182 c-42 -101 -79 -189 -82 -195 -4 -10 47 -13 236 -13 238
0 242 0 231 -20 -10 -19 -23 -20 -251 -22 l-241 -3 -84 -195 c-46 -107 -84
-201 -84 -207 0 -10 53 -13 230 -13 228 0 230 0 218 -20 -12 -19 -24 -20 -243
-20 l-230 0 -89 -206 c-49 -114 -91 -215 -93 -225 -5 -18 3 -19 176 -19 179 0
182 0 171 -20 -10 -19 -21 -20 -189 -20 -131 0 -181 -3 -188 -12 -8 -11 -176
-400 -199 -462 -7 -17 -3 -18 49 -14 70 6 74 -4 9 -20 -84 -22 -150 -59 -346
-196 -105 -73 -271 -186 -368 -251 l-177 -118 -109 36 c-59 20 -141 42 -180
49 -40 7 -72 15 -72 19 0 8 264 545 740 1504 177 358 421 849 541 1093 l218
442 1577 0 c868 0 1575 -2 1573 -5z m6298 -13 c-28 -30 -21 -92 17 -166 l34
-66 -271 -2 c-236 -3 -272 -5 -269 -18 2 -8 6 -30 9 -48 5 -31 4 -32 -18 -24
-17 7 -26 21 -33 51 l-9 41 -273 0 c-151 0 -274 -2 -274 -4 0 -2 9 -48 20
-103 24 -121 24 -125 1 -140 -18 -11 -20 -5 -43 115 l-25 127 -268 3 c-148 1
-272 -1 -275 -5 -4 -5 2 -72 14 -151 18 -125 19 -144 6 -152 -28 -18 -25 -30
-61 228 l-11 82 -274 0 -274 0 1 -32 c0 -18 8 -107 17 -198 l17 -165 173 0
c94 0 172 -3 172 -6 0 -4 -18 -14 -40 -23 -30 -12 -74 -16 -171 -16 l-130 0 7
-58 c5 -51 4 -60 -11 -66 -25 -9 -29 -2 -35 62 l-5 57 -279 3 c-154 1 -283 -1
-287 -5 -4 -5 -3 -73 2 -153 4 -80 11 -206 15 -280 3 -74 9 -196 13 -270 l6
-135 295 -3 c162 -1 299 -1 305 2 8 3 7 41 0 125 -6 67 -9 124 -6 127 2 2 12
4 22 4 18 0 17 6 35 -197 l6 -63 304 0 c283 0 304 1 304 18 0 9 -9 76 -20 147
-11 72 -20 138 -20 148 0 26 38 22 45 -5 5 -20 45 -292 45 -304 0 -2 73 -4
163 -4 157 0 187 -5 187 -32 0 -4 -77 -8 -171 -8 l-172 0 6 -51 c6 -51 6 -51
-16 -36 -12 8 -26 31 -31 51 l-10 36 -302 0 -302 0 2 -147 c1 -83 7 -157 13
-168 6 -11 14 -46 17 -77 l7 -58 79 0 c63 0 82 -4 101 -20 24 -19 15 -19
-1845 -20 -1868 0 -1869 0 -1851 20 10 11 29 20 42 20 16 0 27 8 33 25 5 14
11 25 14 25 2 0 11 3 20 6 13 5 15 1 10 -25 l-7 -31 319 2 319 3 16 165 c9 91
18 191 21 223 l5 57 -39 0 c-21 0 -38 2 -38 4 0 2 -3 11 -6 20 -5 13 2 16 39
16 l44 0 6 53 c3 28 9 87 13 129 5 57 12 82 25 94 11 10 22 15 25 11 3 -3 1
-54 -5 -113 -6 -59 -11 -122 -11 -141 l0 -33 304 0 304 0 6 158 c4 86 9 181
13 210 l5 52 -236 0 c-130 0 -236 4 -236 9 0 26 36 31 246 33 l219 3 6 65 c4
36 8 121 10 190 l4 125 -279 3 c-306 3 -295 5 -296 -58 -1 -73 -11 -110 -33
-110 -19 0 -19 4 -13 85 l7 85 -285 0 c-275 0 -286 -1 -286 -19 0 -11 -3 -27
-6 -36 -6 -14 -8 -14 -25 1 -11 9 -19 25 -19 36 0 12 -7 18 -24 18 -13 0 -34
9 -47 20 l-24 19 53 1 c28 0 52 1 53 3 6 20 54 389 50 392 -2 3 -100 5 -217 5
l-213 0 -71 104 c-39 57 -77 110 -85 116 -8 7 -15 16 -15 21 0 5 1269 9 2962
9 2868 0 2961 -1 2945 -18z m2545 -749 c209 -423 540 -1092 736 -1488 195
-396 410 -830 478 -965 67 -135 120 -247 118 -249 -7 -8 -141 43 -161 63 -11
11 -36 56 -53 99 -63 152 -85 163 -320 160 -128 -1 -182 -6 -240 -21 l-75 -20
-224 151 c-283 190 -315 216 -345 276 -33 64 -69 106 -106 121 -25 11 -40 10
-92 -5 l-62 -17 -33 38 c-18 22 -36 50 -40 64 -4 19 -147 397 -180 478 -4 8
-30 12 -84 12 -68 0 -80 3 -89 20 -10 19 -8 20 70 20 73 0 81 2 76 18 -4 9
-41 109 -85 222 l-78 205 -96 3 c-84 2 -98 5 -107 22 -10 19 -7 20 85 20 74 0
96 3 93 13 -2 7 -37 102 -78 210 l-75 197 -102 0 c-57 0 -103 2 -103 4 0 2 -3
11 -6 20 -5 14 6 16 90 16 72 0 96 3 96 13 0 7 -18 60 -41 118 -22 57 -54 139
-70 182 l-30 77 -110 0 c-60 0 -109 2 -109 4 0 2 -3 11 -6 20 -5 14 7 16 101
16 97 0 106 2 101 18 -3 9 -37 98 -74 197 l-69 180 -214 5 -214 5 -85 47 c-96
52 -294 137 -385 164 -33 10 -64 21 -69 26 -6 4 416 8 938 8 l947 0 381 -767z
m-2301 723 c52 -13 153 -47 224 -76 276 -110 433 -214 558 -370 102 -127 165
-264 411 -885 246 -623 328 -780 597 -1140 58 -77 108 -145 112 -151 4 -8 -17
-21 -61 -37 -559 -208 -972 -521 -1245 -943 -89 -138 -183 -348 -202 -456 -4
-21 -10 -38 -13 -38 -14 0 -1016 417 -1085 452 -273 136 -553 353 -688 533
-93 124 -248 389 -409 700 -98 189 -155 279 -210 329 l-41 37 39 44 c22 25 42
58 45 74 20 97 -84 203 -224 230 -61 12 -79 9 -79 -13 0 -8 18 -16 48 -20 98
-13 201 -85 218 -153 8 -32 -17 -82 -55 -111 l-28 -20 -94 66 c-148 105 -158
113 -168 143 -7 20 -5 35 6 55 71 138 315 216 473 151 96 -40 149 -84 360
-297 219 -223 280 -270 469 -365 67 -33 97 -43 104 -36 13 13 -31 203 -66 291
-39 95 -466 662 -576 763 -95 88 -220 129 -396 130 -118 0 -211 -16 -475 -85
-226 -58 -300 -64 -391 -29 -83 32 -195 118 -177 136 2 3 41 15 86 28 96 28
155 64 148 90 -3 11 2 21 12 24 9 3 125 57 257 121 298 142 482 223 599 263
82 29 98 31 190 27 192 -9 249 -29 573 -210 158 -88 367 -203 463 -255 283
-155 320 -191 391 -388 41 -113 154 -285 188 -285 26 0 17 24 -28 80 -60 75
-104 156 -137 251 -63 186 -88 206 -632 507 -242 134 -448 249 -457 255 -14
11 -4 22 72 89 108 94 163 136 228 174 44 25 59 29 125 28 105 -2 218 -46 325
-127 328 -250 576 -434 596 -444 13 -6 56 -21 95 -32 106 -31 144 -70 234
-238 40 -76 78 -141 84 -145 6 -4 14 -1 18 7 10 17 -130 286 -170 328 -34 36
-103 72 -182 94 -54 15 -97 43 -334 222 -317 239 -330 250 -325 255 2 3 121
26 264 51 280 50 332 52 403 16 45 -23 80 -61 115 -123 78 -136 409 -538 444
-538 27 0 8 30 -103 160 -135 157 -285 353 -314 410 -51 101 -133 151 -255
156 -68 3 -71 4 -98 41 -55 73 -94 167 -79 189 26 40 94 43 223 10z m-166
-236 c3 -5 1 -10 -4 -10 -6 0 -11 5 -11 10 0 6 2 10 4 10 3 0 8 -4 11 -10z
m-2655 -735 c0 -9 -66 -38 -129 -56 -86 -25 -63 -4 36 32 81 29 93 32 93 24z
m-3499 -436 c-21 -90 -22 -89 76 -89 86 0 87 0 63 -17 -16 -11 -51 -20 -95
-23 l-70 -5 -10 -53 c-8 -41 -17 -59 -39 -75 l-28 -20 7 24 c30 105 98 309
102 306 2 -3 -1 -24 -6 -48z m5273 -595 c3 -9 6 -18 6 -20 0 -2 -67 -4 -148
-4 -136 0 -150 2 -167 20 -18 20 -17 20 142 20 137 0 162 -2 167 -16z m66
-228 c0 -26 -6 -18 -14 19 -5 22 -4 26 4 15 5 -8 10 -24 10 -34z m-742 -411
c97 -181 229 -400 293 -485 56 -74 176 -195 274 -277 l50 -42 -3007 -1 c-1655
0 -3008 2 -3008 5 0 13 277 313 411 445 169 167 264 276 345 396 l58 84 2260
-2 2259 -3 65 -120z m-7830 95 c289 -74 634 -298 842 -547 232 -278 351 -547
349 -785 -1 -137 -8 -151 -127 -240 -57 -43 -192 -135 -300 -205 -206 -132
-688 -433 -695 -433 -4 0 -14 37 -63 250 -58 248 -332 697 -594 972 -141 149
-226 210 -450 322 l-190 95 28 19 c15 11 126 86 247 167 121 82 263 180 315
218 126 91 216 133 347 161 137 30 196 31 291 6z m11670 -104 c16 -14 43 -53
61 -86 38 -71 76 -102 373 -301 170 -114 180 -123 158 -132 -400 -163 -879
-574 -1156 -993 -123 -187 -233 -443 -265 -616 -7 -38 -17 -68 -23 -68 -15 0
-439 236 -634 353 -85 51 -169 107 -189 124 l-36 33 6 113 c3 81 12 137 31
202 49 163 163 376 294 550 61 80 240 263 327 334 230 188 537 353 867 466 73
25 138 45 145 45 6 0 25 -11 41 -24z m-10119 -1060 c-30 -24 -309 -226 -313
-226 -4 0 -6 21 -4 47 l3 47 155 72 c85 39 157 70 159 68 2 -2 2 -6 0 -8z"/>
<path d="M15365 18528 c-13 -43 -638 -2358 -660 -2450 l-7 -28 140 0 140 0 11
33 c5 17 33 115 60 217 194 718 337 1251 431 1595 136 501 170 630 170 638 0
4 -63 7 -140 7 -104 0 -142 -3 -145 -12z"/>
<path d="M13988 17426 l-437 -311 -1 -165 0 -165 233 -165 c438 -310 638 -450
642 -450 3 0 5 73 5 163 l0 162 -293 213 c-160 117 -301 219 -311 227 -12 9
-16 18 -10 23 5 5 137 102 294 216 157 113 293 213 303 220 16 12 17 30 15
178 l-3 164 -437 -310z"/>
<path d="M15920 17574 l1 -169 314 -225 c173 -123 312 -227 309 -230 -3 -3
-143 -106 -312 -230 l-307 -226 -3 -162 c-1 -89 1 -162 5 -162 8 1 188 127
656 459 l217 155 0 167 0 168 -202 144 c-112 79 -304 215 -428 302 -124 87
-231 162 -237 168 -10 7 -13 -26 -13 -159z"/>
<path d="M5184 15347 c-3 -8 -4 -54 -2 -103 l3 -89 108 -3 107 -3 0 106 0 105
-105 0 c-79 0 -107 -3 -111 -13z"/>
<path d="M5596 15278 c-21 -30 -20 -54 4 -78 19 -19 33 -20 374 -20 l355 0 15
22 c21 30 20 61 -2 81 -17 15 -57 17 -375 17 l-356 0 -15 -22z"/>
<path d="M6437 15282 c-24 -26 -21 -68 5 -86 19 -14 72 -16 370 -16 335 0 349
1 368 20 11 11 20 29 20 40 0 11 -9 29 -20 40 -19 19 -33 20 -373 20 -330 0
-355 -1 -370 -18z"/>
<path d="M7277 15282 c-22 -24 -21 -65 1 -85 17 -16 101 -17 998 -17 870 0
982 2 1002 16 27 19 29 64 4 87 -17 16 -101 17 -1004 17 -941 0 -986 -1 -1001
-18z"/>
<path d="M10357 15282 c-24 -26 -21 -68 5 -86 19 -14 72 -16 370 -16 335 0
349 1 368 20 24 24 25 48 4 78 l-15 22 -358 0 c-334 0 -359 -1 -374 -18z"/>
<path d="M5187 15013 c-4 -3 -7 -51 -7 -105 l0 -98 110 0 110 0 0 105 0 105
-103 0 c-57 0 -107 -3 -110 -7z"/>
<path d="M8237 14942 c-24 -26 -21 -68 5 -86 20 -14 87 -16 530 -16 495 0 509
1 528 20 24 24 25 48 4 78 l-15 22 -518 0 c-489 0 -519 -1 -534 -18z"/>
<path d="M5184 14667 c-2 -7 -3 -56 -2 -108 l3 -94 105 0 105 0 0 105 0 105
-103 3 c-79 2 -104 0 -108 -11z"/>
<path d="M5597 14602 c-23 -25 -21 -58 3 -82 20 -20 33 -20 750 -20 l731 0 24
25 c29 28 31 42 9 73 l-15 22 -743 0 c-707 0 -744 -1 -759 -18z"/>
<path d="M7202 14608 c-7 -7 -12 -27 -12 -44 0 -67 -35 -64 772 -64 715 0 728
0 748 20 25 25 26 62 2 83 -17 16 -84 17 -758 17 -562 0 -743 -3 -752 -12z"/>
<path d="M8806 14604 c-22 -21 -20 -60 4 -84 20 -20 33 -20 749 -20 688 0 730
1 751 18 13 11 23 29 23 45 0 60 43 57 -769 57 -662 0 -744 -2 -758 -16z"/>
<path d="M10406 14598 c-22 -31 -20 -45 9 -73 l24 -25 319 0 c306 0 319 1 340
20 27 25 28 61 4 83 -17 15 -56 17 -350 17 -331 0 -331 0 -346 -22z"/>
<path d="M5184 14327 c-2 -7 -3 -56 -2 -108 l3 -94 105 0 105 0 0 105 0 105
-103 3 c-79 2 -104 0 -108 -11z"/>
<path d="M6224 14245 c-25 -26 -26 -52 -2 -82 8 -10 221 -13 1003 -13 948 0
993 1 1008 18 23 25 21 58 -3 82 -20 20 -33 20 -1000 20 l-981 0 -25 -25z"/>
<path d="M8440 14252 c-25 -20 -30 -63 -10 -87 11 -13 64 -15 367 -15 225 0
361 4 374 10 13 7 19 21 19 45 0 65 -3 65 -386 65 -315 0 -344 -1 -364 -18z"/>
<path d="M9312 14254 c-27 -19 -29 -64 -4 -87 17 -15 57 -17 375 -17 l356 0
15 22 c23 32 20 54 -10 77 -26 20 -38 21 -368 21 -293 0 -345 -2 -364 -16z"/>
<path d="M5182 13888 l3 -103 105 0 105 0 3 103 3 102 -111 0 -111 0 3 -102z"/>
<path d="M6220 13945 c-20 -24 -15 -67 10 -87 20 -17 49 -18 359 -18 373 0
384 2 389 58 6 64 16 62 -383 62 -310 0 -364 -2 -375 -15z"/>
<path d="M7095 13944 c-24 -25 -16 -76 15 -91 19 -9 111 -13 361 -13 325 0
337 1 363 21 30 23 33 45 10 77 l-15 22 -359 0 c-318 0 -360 -2 -375 -16z"/>
<path d="M8444 13652 c-6 -4 -17 -18 -24 -31 -10 -20 -9 -27 8 -50 l19 -26
353 -3 c318 -2 355 -1 372 14 23 22 23 66 0 87 -17 15 -57 17 -368 17 -192 0
-354 -4 -360 -8z"/>
<path d="M9307 13642 c-22 -24 -21 -65 1 -85 17 -15 57 -17 370 -17 339 0 353
1 372 20 11 11 20 29 20 40 0 11 -9 29 -20 40 -19 19 -33 20 -373 20 -330 0
-355 -1 -370 -18z"/>
<path d="M5184 13637 c-3 -8 -4 -54 -2 -103 l3 -89 108 -3 107 -3 0 106 0 105
-105 0 c-79 0 -107 -3 -111 -13z"/>
<path d="M5187 13303 c-4 -3 -7 -51 -7 -105 l0 -98 110 0 110 0 0 105 0 105
-103 0 c-57 0 -107 -3 -110 -7z"/>
<path d="M5594 13205 c-21 -32 -12 -68 21 -83 18 -9 127 -12 365 -12 327 0
341 1 360 20 25 25 26 62 2 83 -17 15 -57 17 -375 17 l-357 0 -16 -25z"/>
<path d="M6437 13212 c-23 -25 -21 -58 3 -82 19 -19 33 -20 360 -20 238 0 347
3 365 12 33 15 42 51 21 83 l-16 25 -359 0 c-334 0 -359 -1 -374 -18z"/>
<path d="M7278 13219 c-12 -6 -18 -22 -18 -44 0 -69 -65 -65 1022 -65 965 0
978 0 998 20 25 25 26 62 2 83 -17 16 -101 17 -1003 17 -650 -1 -990 -4 -1001
-11z"/>
<path d="M10357 13212 c-21 -23 -22 -52 -3 -78 14 -18 31 -19 353 -22 186 -2
348 0 360 3 51 12 70 67 35 98 -17 15 -57 17 -374 17 -331 0 -356 -1 -371 -18z"/>
<path d="M5187 12963 c-4 -3 -7 -51 -7 -105 l0 -98 110 0 110 0 0 105 0 105
-103 0 c-57 0 -107 -3 -110 -7z"/>
<path d="M8257 12889 c-32 -12 -45 -49 -28 -85 l11 -24 523 0 c495 0 525 1
540 18 23 25 21 55 -4 78 -20 18 -45 19 -518 21 -317 1 -506 -2 -524 -8z"/>
<path d="M9452 12890 c-35 -15 -48 -54 -28 -85 l16 -25 1269 0 c1216 0 1269 1
1284 18 23 25 21 55 -4 78 -20 18 -57 19 -1268 21 -734 1 -1255 -2 -1269 -7z"/>
<path d="M5187 12623 c-4 -3 -7 -51 -7 -105 l0 -98 110 0 110 0 0 105 0 105
-103 0 c-57 0 -107 -3 -110 -7z"/>
<path d="M5603 12537 c-28 -22 -30 -58 -5 -80 17 -16 84 -17 760 -17 l741 0
15 22 c20 29 20 41 -1 67 l-18 21 -734 3 c-698 2 -736 1 -758 -16z"/>
<path d="M7216 12545 c-24 -12 -34 -68 -15 -91 10 -12 121 -14 755 -14 662 0
744 2 758 16 19 19 21 54 4 77 -12 16 -69 17 -747 20 -485 1 -742 -1 -755 -8z"/>
<path d="M10741 12553 c-275 -3 -317 -5 -333 -20 -22 -20 -23 -42 -2 -71 15
-22 15 -22 348 -22 310 0 334 1 349 18 18 19 22 49 9 68 -7 12 -48 36 -54 32
-2 -2 -144 -4 -317 -5z"/>
<path d="M5182 12178 l3 -103 105 0 105 0 3 103 3 102 -111 0 -111 0 3 -102z"/>
<path d="M6230 12132 c-25 -20 -30 -63 -10 -87 11 -13 134 -15 1005 -15 948 0
993 1 1008 18 21 23 22 52 3 78 -14 19 -37 19 -999 22 -940 2 -985 1 -1007
-16z"/>
<path d="M8440 12132 c-25 -20 -30 -63 -10 -87 11 -13 65 -15 374 -15 268 0
365 3 374 12 7 7 12 27 12 44 0 63 -5 64 -386 64 -315 0 -344 -1 -364 -18z"/>
<path d="M9330 12143 c-39 -14 -53 -69 -24 -97 13 -14 61 -16 374 -16 l359 0
15 22 c23 32 20 54 -10 77 -26 20 -37 21 -363 20 -185 0 -343 -3 -351 -6z"/>
<path d="M5182 11838 l3 -103 108 -3 107 -3 0 106 0 105 -110 0 -111 0 3 -102z"/>
<path d="M6222 11828 c-24 -31 -23 -57 2 -83 l25 -25 343 0 c385 0 388 0 388
65 0 24 -6 38 -19 45 -30 16 -726 14 -739 -2z"/>
<path d="M7097 11822 c-24 -26 -21 -68 5 -86 19 -14 71 -16 364 -16 330 0 342
1 368 21 30 23 33 45 10 77 l-15 22 -358 0 c-334 0 -359 -1 -374 -18z"/>
<path d="M5182 11498 l3 -103 108 -3 107 -3 0 106 0 105 -110 0 -111 0 3 -102z"/>
<path d="M8444 11532 c-24 -16 -35 -51 -23 -74 7 -13 17 -26 23 -30 6 -4 169
-8 362 -8 327 0 352 1 367 18 22 24 21 65 -1 85 -17 15 -57 17 -368 17 -192 0
-354 -4 -360 -8z"/>
<path d="M9307 11522 c-22 -24 -21 -65 1 -85 17 -15 57 -17 370 -17 339 0 353
1 372 20 11 11 20 29 20 40 0 11 -9 29 -20 40 -19 19 -33 20 -373 20 -330 0
-355 -1 -370 -18z"/>
<path d="M5187 11253 c-4 -3 -7 -51 -7 -105 l0 -98 110 0 110 0 0 105 0 105
-103 0 c-57 0 -107 -3 -110 -7z"/>
<path d="M6222 11168 c-24 -31 -23 -57 2 -83 l25 -25 343 0 c384 0 388 1 388
64 0 17 -5 37 -12 44 -18 18 -731 17 -746 0z"/>
<path d="M7095 11164 c-24 -25 -16 -76 15 -91 19 -9 112 -13 363 -13 l338 0
24 25 c29 28 31 42 9 73 l-15 22 -359 0 c-318 0 -360 -2 -375 -16z"/>
<path d="M5187 10913 c-4 -3 -7 -51 -7 -105 l0 -98 110 0 110 0 0 105 0 105
-103 0 c-57 0 -107 -3 -110 -7z"/>
<path d="M8442 10873 c-34 -14 -33 -82 2 -105 6 -4 169 -8 362 -8 327 0 352 1
367 18 22 24 21 65 -1 85 -17 15 -56 17 -368 16 -192 0 -355 -3 -362 -6z"/>
<path d="M9307 10862 c-24 -26 -21 -68 5 -86 19 -14 72 -16 370 -16 335 0 349
1 368 20 11 11 20 29 20 40 0 11 -9 29 -20 40 -19 19 -33 20 -373 20 -330 0
-355 -1 -370 -18z"/>
<path d="M5187 10574 c-4 -4 -7 -52 -7 -106 l0 -98 110 0 111 0 -3 103 -3 102
-101 3 c-55 1 -103 0 -107 -4z"/>
<path d="M6221 10553 c-23 -28 -20 -59 7 -80 12 -10 101 -13 368 -13 387 0
384 -1 384 60 0 59 -8 60 -391 60 l-348 0 -20 -27z"/>
<path d="M7102 10564 c-27 -19 -29 -64 -4 -87 17 -15 57 -17 375 -17 l356 0
15 22 c21 30 20 54 -4 78 -19 19 -33 20 -368 20 -298 0 -351 -2 -370 -16z"/>
<path d="M5184 10227 c-2 -7 -3 -56 -2 -108 l3 -94 105 0 105 0 0 105 0 105
-103 3 c-79 2 -104 0 -108 -11z"/>
<path d="M5597 10162 c-23 -25 -21 -55 4 -78 20 -18 43 -19 354 -22 222 -1
342 2 364 9 36 13 49 47 32 85 l-11 24 -363 0 c-340 0 -365 -1 -380 -18z"/>
<path d="M6429 10156 c-17 -36 -4 -72 30 -84 17 -6 161 -9 364 -9 314 2 336 3
356 21 26 23 27 57 3 79 -17 15 -58 17 -381 17 l-361 0 -11 -24z"/>
<path d="M7272 10168 c-18 -18 -15 -73 5 -89 13 -12 181 -14 998 -14 953 0
984 1 1004 19 23 21 27 47 11 77 -10 19 -32 19 -1008 19 -763 0 -1001 -3
-1010 -12z"/>
<path d="M10350 10161 c-16 -30 -12 -56 11 -77 20 -18 41 -19 369 -19 328 0
349 1 369 19 25 23 27 58 5 80 -13 14 -62 16 -379 16 -350 0 -365 -1 -375 -19z"/>
<path d="M5182 9788 l3 -103 108 -3 107 -3 0 106 0 105 -110 0 -111 0 3 -102z"/>
<path d="M8240 9830 c-25 -25 -26 -62 -2 -83 17 -15 68 -17 534 -17 486 0 516
1 531 18 23 25 21 58 -3 82 -19 19 -33 20 -530 20 -497 0 -511 -1 -530 -20z"/>
<path d="M9436 9829 c-30 -23 -33 -45 -10 -77 l15 -22 1268 0 c1216 0 1269 1
1284 18 23 25 21 58 -3 82 -20 20 -33 20 -1274 20 -1253 0 -1253 0 -1280 -21z"/>
<path d="M5182 9448 l3 -103 108 -3 107 -3 0 106 0 105 -110 0 -111 0 3 -102z"/>
<path d="M5600 9490 c-24 -24 -25 -48 -4 -78 l15 -22 740 0 c726 0 739 0 759
20 11 11 20 25 20 31 0 15 -21 53 -34 61 -6 4 -341 8 -743 8 -720 0 -733 0
-753 -20z"/>
<path d="M7207 9492 c-21 -23 -22 -66 -1 -86 14 -14 96 -16 753 -16 702 0 739
1 754 18 23 25 21 58 -3 82 -20 20 -33 20 -753 20 -698 0 -735 -1 -750 -18z"/>
<path d="M10410 9488 c-25 -28 -26 -52 0 -78 19 -19 33 -20 349 -20 330 0 330
0 345 22 21 30 20 54 -4 78 -19 19 -33 20 -345 20 -321 0 -324 0 -345 -22z"/>
<path d="M8485 8148 c-4 -12 -55 -363 -55 -380 0 -5 126 -8 280 -8 l280 0 4
23 c5 20 36 342 36 366 0 17 -539 15 -545 -1z"/>
<path d="M9076 8128 c-5 -30 -36 -340 -36 -360 0 -4 128 -8 284 -8 l284 0 6
138 c4 75 9 165 12 200 l6 62 -276 0 -275 0 -5 -32z"/>
<path d="M9677 8152 c-3 -4 -8 -88 -12 -187 -4 -99 -8 -184 -9 -190 0 -6 100
-11 282 -13 l282 -2 0 200 0 200 -269 0 c-149 0 -272 -3 -274 -8z"/>
<path d="M10270 7960 l0 -200 281 0 282 0 -8 193 c-4 105 -9 195 -12 200 -2 4
-125 7 -274 7 l-269 0 0 -200z"/>
<path d="M10866 8033 c4 -71 9 -159 13 -198 l6 -70 283 -3 c155 -1 282 -1 282
1 0 1 -9 90 -20 197 -11 107 -20 195 -20 197 0 2 -124 3 -275 3 l-275 0 6
-127z"/>
<path d="M9655 7708 c-7 -19 -23 -362 -18 -370 2 -5 134 -8 294 -8 l289 0 0
195 0 195 -280 0 c-216 0 -282 -3 -285 -12z"/>
<path d="M10270 7525 l0 -195 293 2 c187 2 292 7 291 13 -1 6 -5 89 -9 185 -4
96 -9 178 -11 182 -3 5 -131 8 -285 8 l-279 0 0 -195z"/>
<path d="M9627 7138 c-4 -83 -7 -177 -7 -210 l0 -58 300 0 300 0 0 210 0 210
-293 0 -294 0 -6 -152z"/>
<path d="M10270 7080 l0 -210 306 0 306 0 -6 103 c-3 56 -9 150 -12 210 l-6
107 -294 0 -294 0 0 -210z"/>
<path d="M8936 6643 c-9 -104 -19 -205 -22 -225 l-6 -38 316 0 c173 0 317 3
319 8 3 4 8 102 12 217 4 116 9 213 12 218 2 4 -135 7 -305 7 l-309 0 -17
-187z"/>
<path d="M9606 6678 c-4 -84 -9 -186 -12 -225 l-6 -73 316 0 316 0 0 225 0
225 -304 0 -303 0 -7 -152z"/>
<path d="M10270 6605 l0 -225 316 0 317 0 -7 143 c-4 78 -9 179 -13 225 l-6
82 -303 0 -304 0 0 -225z"/>
<path d="M10934 6658 c4 -95 9 -197 12 -225 l6 -53 314 0 314 0 0 23 c0 29
-27 327 -35 385 l-6 42 -306 0 -306 0 7 -172z"/>
<path d="M15030 8156 c0 -2 9 -25 20 -51 11 -25 43 -108 71 -183 28 -75 55
-143 61 -149 8 -10 70 -13 249 -13 132 0 239 3 239 7 0 4 -37 94 -82 200 l-81
193 -239 0 c-131 0 -238 -2 -238 -4z"/>
<path d="M15204 7703 c3 -10 37 -97 75 -193 l68 -175 252 -3 c197 -2 251 0
251 10 0 7 -35 94 -78 193 l-77 180 -248 3 c-234 2 -248 1 -243 -15z"/>
<path d="M15370 7279 c0 -6 35 -100 77 -210 l78 -199 262 0 c145 0 263 3 263
8 0 4 -39 98 -87 210 l-86 202 -254 0 c-175 0 -253 -3 -253 -11z"/>
<path d="M15551 6803 c6 -16 41 -109 79 -208 37 -99 71 -188 75 -197 7 -17 30
-18 281 -18 151 0 274 3 274 8 0 4 -42 104 -93 222 l-93 215 -267 3 -267 2 11
-27z"/>
<path d="M15733 6328 c2 -7 26 -69 52 -138 27 -69 67 -172 89 -230 l41 -105
288 -3 c158 -1 287 -1 287 0 0 2 -47 111 -104 243 l-103 240 -278 3 c-220 2
-276 0 -272 -10z"/>
<path d="M2714 13902 l-102 -3 -7 -72 c-3 -40 -9 -77 -13 -83 -4 -5 -32 -17
-63 -27 -31 -9 -78 -28 -103 -42 -53 -28 -48 -29 -130 33 l-58 45 -74 -74 -74
-75 51 -67 52 -67 -26 -53 c-15 -28 -35 -77 -45 -107 -21 -60 -22 -60 -130
-77 l-54 -8 0 -98 c0 -54 3 -101 6 -105 4 -3 40 -11 82 -16 l75 -11 24 -71
c13 -39 34 -87 45 -107 l22 -37 -53 -71 -52 -70 69 -70 c38 -38 73 -69 79 -69
6 0 39 21 74 46 l62 47 77 -36 c42 -19 91 -38 109 -42 31 -6 31 -7 43 -91 l12
-84 104 0 103 0 6 33 c3 17 8 54 13 81 l7 48 65 23 c36 12 84 32 108 44 47 24
44 25 123 -35 l56 -43 73 74 c50 50 70 77 64 86 -4 8 -25 37 -46 65 -21 28
-38 54 -38 58 0 4 15 40 34 79 19 40 37 86 41 104 7 35 14 38 113 49 l63 7 -3
106 -3 106 -80 10 -79 10 -13 45 c-7 25 -27 75 -44 111 l-32 66 52 69 52 68
-72 72 c-40 40 -77 70 -83 67 -6 -4 -37 -27 -69 -51 l-59 -44 -76 36 c-42 19
-91 38 -109 42 -35 7 -38 14 -49 112 -4 34 -9 63 -13 65 -3 1 -52 1 -107 -1z
m79 -54 c3 -13 9 -50 13 -84 l6 -61 48 -11 c50 -12 137 -49 181 -78 26 -17 27
-17 87 29 33 26 64 47 69 47 12 0 93 -83 93 -95 0 -5 -21 -35 -47 -68 -42 -54
-45 -61 -33 -81 31 -49 60 -115 76 -173 l17 -61 61 -7 c102 -12 106 -15 106
-84 0 -71 -5 -76 -101 -86 l-66 -7 -17 -62 c-10 -33 -34 -91 -53 -128 l-36
-67 39 -53 c61 -81 61 -75 13 -124 -24 -24 -47 -44 -53 -44 -5 0 -32 17 -60
38 -28 21 -56 41 -63 45 -6 4 -40 -8 -75 -27 -35 -19 -90 -42 -123 -51 -33
-10 -61 -18 -62 -19 -2 -1 -8 -37 -14 -80 l-12 -77 -71 3 -71 3 -10 75 -10 75
-45 13 c-25 7 -82 31 -128 53 l-82 41 -55 -41 c-30 -23 -61 -44 -68 -46 -7 -3
-33 16 -59 42 l-47 48 50 67 50 67 -26 39 c-27 40 -74 164 -75 193 0 13 -17
19 -77 28 -43 6 -81 15 -86 20 -4 4 -7 37 -5 72 l3 64 77 11 c43 5 79 12 82
15 2 2 11 31 21 64 9 33 32 88 51 123 l35 62 -45 59 c-26 33 -46 63 -46 67 0
5 21 30 46 55 l47 48 64 -49 63 -48 74 38 c40 21 98 43 128 50 l56 13 6 51 c4
28 9 66 12 84 l6 32 68 0 c62 0 68 -2 73 -22z"/>
<path d="M2606 13549 c-115 -28 -233 -129 -289 -246 -30 -64 -32 -74 -32 -183
0 -109 2 -119 32 -183 132 -279 496 -343 713 -127 224 224 144 607 -150 722
-62 24 -209 33 -274 17z m277 -61 c219 -101 301 -365 180 -575 -33 -57 -116
-130 -183 -162 -48 -23 -68 -26 -160 -26 -93 0 -111 3 -163 27 -80 38 -160
117 -200 197 -30 61 -32 72 -32 171 0 97 2 110 31 170 34 73 105 150 168 182
75 39 118 48 211 45 72 -2 101 -8 148 -29z"/>
<path d="M17361 12538 c-20 -141 -18 -136 -64 -148 -61 -16 -94 -29 -169 -67
-40 -21 -72 -32 -80 -27 -7 4 -45 31 -84 61 -40 29 -76 53 -81 53 -4 0 -48
-40 -96 -88 l-88 -88 65 -86 65 -85 -44 -88 c-24 -48 -49 -111 -56 -141 -14
-61 -8 -58 -136 -75 l-93 -12 0 -128 c0 -147 -13 -131 123 -149 49 -7 90 -17
92 -24 23 -83 53 -162 80 -212 l33 -60 -66 -88 -65 -88 91 -90 90 -91 88 65
88 66 60 -34 c68 -36 120 -58 182 -74 l42 -10 13 -108 14 -107 130 0 130 0 15
105 15 105 81 26 c45 14 108 41 142 59 37 19 66 29 74 24 7 -4 45 -32 84 -61
39 -29 75 -53 80 -53 5 0 47 38 93 84 57 58 82 89 78 100 -4 9 -31 49 -62 90
l-56 74 45 94 c25 51 50 114 57 140 13 54 10 52 137 69 l92 12 0 128 c0 148
16 129 -129 151 l-83 13 -27 80 c-15 44 -42 108 -60 141 l-33 62 68 87 67 87
-89 89 c-49 49 -91 89 -95 89 -3 0 -44 -29 -90 -63 l-84 -64 -60 34 c-33 18
-97 45 -142 59 -46 15 -83 29 -83 33 0 3 -7 49 -15 101 -8 52 -15 98 -15 103
0 4 -58 7 -129 7 l-129 0 -11 -82z m250 -66 c9 -56 18 -104 20 -105 2 -2 29
-9 59 -16 30 -7 101 -35 157 -63 l102 -51 83 62 82 61 67 -66 67 -67 -64 -85
-64 -85 19 -31 c39 -63 70 -133 92 -208 14 -48 29 -80 38 -82 9 -3 55 -10 104
-16 l87 -12 0 -93 c0 -108 11 -97 -123 -115 -82 -11 -87 -14 -93 -39 -15 -68
-40 -133 -80 -210 l-44 -84 55 -74 c31 -40 58 -79 61 -86 2 -7 -25 -41 -60
-76 l-64 -64 -84 62 -85 61 -97 -49 c-53 -28 -122 -55 -154 -62 -31 -7 -60
-15 -64 -18 -4 -3 -12 -37 -17 -76 -6 -38 -13 -85 -16 -102 l-6 -33 -93 0 -94
0 -12 88 c-16 122 -18 126 -83 141 -56 12 -179 67 -226 100 l-27 19 -84 -63
-85 -64 -67 66 -67 66 19 26 c10 14 38 52 63 85 l44 59 -34 55 c-37 62 -69
142 -85 214 -13 54 -5 50 -138 70 l-85 13 -3 83 c-2 48 2 89 7 96 6 7 55 18
109 25 l99 13 11 47 c17 72 49 152 87 215 l35 58 -60 78 c-33 43 -60 83 -60
87 0 5 29 37 64 72 l64 63 73 -54 c41 -30 79 -57 85 -61 7 -4 50 13 97 38 46
25 118 54 158 64 l74 19 16 103 c9 57 17 105 18 107 0 1 43 1 94 0 l92 -3 16
-103z"/>
<path d="M17381 12165 c-195 -43 -350 -183 -415 -377 -66 -195 -10 -426 140
-573 212 -210 553 -216 769 -14 116 109 173 228 182 384 10 167 -43 302 -166
426 -141 141 -320 195 -510 154z m222 -40 c244 -51 417 -263 417 -508 0 -276
-211 -502 -490 -524 -240 -18 -485 162 -539 397 -15 65 -13 196 4 259 44 169
174 307 338 360 106 34 168 38 270 16z"/>
<path d="M18540 8702 c-5 -2 -10 -10 -10 -18 0 -12 51 -14 321 -14 289 0 320
2 317 16 -3 14 -36 16 -310 18 -169 0 -312 0 -318 -2z"/>
<path d="M15935 3740 c-4 -6 -12 -59 -18 -118 -12 -124 1 -302 32 -420 27
-104 80 -231 101 -242 32 -17 31 16 -5 92 -18 40 -43 110 -54 154 -36 142 -41
222 -28 503 2 34 -15 52 -28 31z"/>
<path d="M4025 3481 c0 -75 -2 -83 -49 -175 -35 -67 -46 -100 -39 -107 16 -16
41 16 87 110 32 68 41 99 44 153 4 68 -6 98 -32 98 -8 0 -12 -25 -11 -79z"/>
<path d="M3895 3428 c-2 -7 -13 -53 -25 -103 -27 -118 -95 -253 -182 -360 -37
-46 -68 -89 -68 -95 0 -5 9 -10 19 -10 30 0 145 151 201 265 50 100 98 269 87
300 -8 18 -26 20 -32 3z"/>
<path d="M16120 3195 c-26 -31 -5 -121 54 -239 66 -131 99 -177 116 -159 10 9
1 32 -39 101 -72 127 -104 216 -96 269 5 34 3 43 -8 43 -8 0 -20 -7 -27 -15z"/>
</g>
</svg>
